<?xml version="1.0" encoding="utf-8"?>
<!-- Generator: Adobe Illustrator 22.1.0, SVG Export Plug-In . SVG Version: 6.00 Build 0)  -->
<svg version="1.1" id="Layer_1" xmlns="http://www.w3.org/2000/svg" xmlns:xlink="http://www.w3.org/1999/xlink" x="0px" y="0px"
	 viewBox="0 0 672.9 174" style="enable-background:new 0 0 672.9 174;" xml:space="preserve">
<style type="text/css">
	.st0{fill:#0A2240;}
	.st1{fill:#FFFFFF;}
	.st2{fill:#DAA900;}
</style>
<g>
	<path class="st0" d="M196.8,46.3c-2,0.4-3.5,0.7-4.6,0.7c-1.9,0-4.3,0.1-7.4,0.2c-3.1,0.1-5.6,0.2-7.5,0.2c-1.9,0-4.5-0.1-7.5-0.2
		c-3.1-0.1-5.5-0.2-7.4-0.2c-1.1,0-2.7-0.2-4.6-0.7l-0.5-0.1l-1.4,11l0.1,0.1c0.4,0.5,1.1,0.7,2.1,0.7c0.9,0,1.1-0.5,1.1-0.7
		c0.7-2.4,1.5-4,2.5-4.8c1-0.8,2.5-1.2,4.6-1.2c5.2,0,6,0.7,6.1,1c0.2,0.3,0.5,1.6,0.5,6.4v24.7c0,2.5-0.2,4.4-0.5,5.5
		c0,0-0.1,0.3-1.7,0.8c-1.1,0.3-1.9,0.5-2.4,0.5c-0.7,0-0.7,1-0.7,1.7c0,0.7,0.1,1.1,0.4,1.4l0.1,0.1l0.2,0c0.5,0,1.8-0.1,4-0.3
		c2.1-0.1,3.8-0.2,5-0.2c0.9,0,1.8,0,2.8,0.1c1,0,2,0.1,3.2,0.2l3,0.2l0.1-0.3c0.1-0.3,0.2-0.7,0.2-1.2c0-0.6,0-1.7-0.7-1.7
		c-0.3,0-0.8-0.1-2.3-0.5c-1.4-0.4-1.5-0.7-1.5-0.7c-0.4-1.5-0.6-3.4-0.6-5.8V58.4c0-2.9,0.2-5,0.6-6.3c0,0,0.3-0.8,6.2-0.8
		c2.1,0,3.7,0.4,4.6,1.2c1,0.8,1.8,2.5,2.4,4.9c0.1,0.2,0.4,0.6,1.1,0.6c1,0,1.7-0.2,2.1-0.6l0.1-0.1l-1.4-11.1L196.8,46.3z"/>
	<path class="st0" d="M246,51.4c0,0,0.2-0.3,1.7-0.7c1.5-0.4,2.1-0.5,2.3-0.5c0.7,0,0.7-1,0.7-1.6c0-0.4-0.1-0.8-0.2-1.2l-0.1-0.3
		l-0.3,0c-5.4,0.3-8.3,0.4-8.7,0.4c-1.2,0-3-0.1-5.3-0.2c-3.1-0.2-3.7-0.2-3.8-0.2h-0.2l-0.1,0.1c-0.2,0.2-0.3,0.5-0.3,1.5
		c0,0.4,0,1.5,0.7,1.5c0.5,0,1.3,0.2,2.3,0.5c1.4,0.4,1.6,0.7,1.6,0.8c0.3,1,0.5,2.9,0.5,5.6l0,10c-3.9,0.1-6.8,0.1-8.7,0.1
		c-1.7,0-4.7,0-9-0.1v-9.7c0-2.5,0.2-4.5,0.5-5.9c0,0,0.2-0.3,1.7-0.7c1.5-0.4,2.1-0.5,2.3-0.5c0.7,0,0.7-1,0.7-1.6
		c0-0.4-0.1-0.8-0.2-1.2l-0.1-0.3l-0.3,0c-5.4,0.3-8.3,0.4-8.7,0.4c-1.2,0-3-0.1-5.3-0.2c-3.1-0.2-3.7-0.2-3.8-0.2h-0.2l-0.1,0.1
		c-0.2,0.2-0.3,0.5-0.3,1.5c0,0.4,0,1.5,0.7,1.5c0.5,0,1.3,0.2,2.3,0.5c1.4,0.4,1.6,0.7,1.6,0.8c0.3,1,0.5,2.9,0.5,5.6v26.3
		c0,2.4-0.2,4.2-0.5,5.6c0,0-0.1,0.3-1.7,0.8c-1.1,0.3-1.9,0.5-2.4,0.5c-0.7,0-0.7,1-0.7,1.7c0,0.6,0.1,1,0.4,1.3l0.1,0.1l0.2,0
		c0.7,0,1.7-0.1,2.9-0.2c1.2-0.1,2.3-0.1,3.3-0.2c1,0,2-0.1,2.8-0.1c0.3,0,3.2,0.1,8.6,0.4l0.3,0l0.1-0.3c0.1-0.3,0.2-0.7,0.2-1.1
		c0-0.7,0-1.7-0.7-1.7c-0.3,0-0.8-0.1-2.2-0.5c-1.4-0.4-1.6-0.7-1.6-0.7v0c-0.4-1.5-0.6-3.6-0.6-6v-11c0.7-0.1,2.8-0.2,9-0.3
		c1.6,0,4.5,0,8.7,0.1v11.6c0,2.4-0.2,4.2-0.5,5.6c0,0-0.1,0.3-1.7,0.8c-1.1,0.3-1.9,0.5-2.4,0.5c-0.7,0-0.7,1-0.7,1.7
		c0,0.6,0.1,1,0.4,1.3l0.1,0.1l0.2,0c0.7,0,1.7-0.1,2.9-0.2c1.2-0.1,2.3-0.1,3.3-0.2c1,0,2-0.1,2.8-0.1c0.3,0,3.2,0.1,8.6,0.4l0.3,0
		l0.1-0.3c0.1-0.3,0.2-0.7,0.2-1.1c0-0.7,0-1.7-0.7-1.7c-0.3,0-0.8-0.1-2.2-0.5c-1.4-0.4-1.6-0.7-1.6-0.7v0c-0.4-1.5-0.6-3.6-0.6-6
		V57.2C245.5,54.7,245.7,52.7,246,51.4z"/>
	<path class="st0" d="M294,84.1c0.5-1.5,0.9-2.4,1-2.8l0.1-0.3l-0.2-0.2c-0.4-0.4-1.1-0.5-2.2-0.5c-1,0-1.3,0.4-1.4,0.7
		c-0.5,1.5-1.2,2.8-2,4c-0.9,1.2-1.6,1.9-2.3,2.3c-1.8,0.9-4.5,1.4-7.9,1.4h-2.5c-4,0-4.2-0.6-4.2-0.6c-0.4-1.1-0.6-2.9-0.6-5.4
		V72.4c0.3-0.1,1.2-0.3,4.5-0.3c4.6,0,5.8,0.3,6,0.5c0.3,0.2,0.4,0.3,0.5,0.4c0,0.1,0.1,0.3,0.4,0.8c0.2,0.6,0.5,1.5,0.8,2.7
		c0.1,0.4,0.5,0.8,1.5,0.8c0.8,0,1.3-0.1,1.6-0.4l0.1-0.1V63.5l-0.1-0.1c-0.3-0.3-0.8-0.5-1.6-0.5c-0.9,0-1.4,0.3-1.5,0.8
		c-0.1,0.5-0.3,1-0.4,1.7c-0.3,1.7-0.8,2-0.9,2.1c-0.2,0.1-1.2,0.3-4.5,0.3h-3.8c-1.7,0-2.4-0.1-2.6-0.2V57.2c0-2.4,0.1-4.2,0.4-5.4
		c0-0.1,0.5-0.6,4.8-0.6h3.5c4.2,0,6.9,1.9,8.3,5.8c0.1,0.3,0.5,0.7,1.3,0.7c0.9,0,1.4-0.1,1.7-0.5l0.2-0.2l0-0.2
		c0-0.2-0.3-1.6-0.9-4c-0.5-2.4-0.9-4.3-1.1-5.7l0-0.4h-0.4c-2.6,0-6.4,0.1-11.5,0.2c-5,0.2-8.5,0.2-10.5,0.2c-3,0-6.1-0.1-9-0.3
		l-0.2,0l-0.1,0.1c-0.3,0.3-0.4,0.8-0.4,1.5c0,0.4,0,1.5,0.7,1.5c0.6,0,1.5,0.2,2.6,0.5c1.3,0.4,1.6,0.8,1.6,0.9
		c0.3,1,0.5,2.8,0.5,5.5v25.8c0,3.1-0.2,5.2-0.4,6c0,0.1-0.3,0.5-1.7,0.8c-1.1,0.3-1.9,0.4-2.5,0.4c-0.6,0-0.6,0.9-0.6,1.6
		c0,0.7,0.1,1.2,0.3,1.4l0.1,0.1l9.3-0.3c2.3-0.1,6.4-0.1,12,0.1c5.8,0.1,9.5,0.2,11.3,0.2h0.4l0-0.4c0.1-0.7,0.3-1.5,0.6-2.6
		c0.3-1.1,0.6-2,0.9-2.7C293.1,86.7,293.5,85.6,294,84.1z"/>
	<path class="st0" d="M378.9,90c-0.4,0-1.1-0.2-2.2-0.5c-1.3-0.4-1.6-0.8-1.6-0.9c-0.7-1.7-1-3.7-1.1-6.1c-0.5-14.6-0.8-24.1-1-28.1
		c-0.1-2.2,0.3-3,0.7-3.3c0.9-0.7,2-1,3.1-1h0.1c0.7,0,0.7-1,0.7-1.6c0-0.7-0.1-1.1-0.3-1.3l-0.1-0.2l-0.2,0
		c-3.6,0.2-6.3,0.3-8.1,0.3c-2.3,0-4.2-0.1-5.5-0.2l-0.3,0l-2.5,8.2c-2.3,6-5.4,13.8-9.4,23.2c-1.3-3.1-2.9-7.1-4.9-11.7
		c-2.1-4.9-3.9-9.1-5.3-12.5c-1.4-3.4-2.4-5.8-2.8-7L338,47l-0.3,0c-5.2,0.3-6.5,0.4-6.6,0.4c-1.2,0-2.6-0.1-4.2-0.2l-3.7-0.3
		l-0.1,0.1c-0.3,0.3-0.4,0.7-0.4,1.3c0,0.6,0,1.6,0.7,1.6c0.6,0,1.5,0.2,2.9,0.5c1.8,0.4,2,0.7,2,0.7c0.1,0.3,0.2,0.8,0.2,1.8
		c0,0.8-0.1,2.8-0.2,6.2l-0.4,12c-0.2,4.7-0.3,8.8-0.4,12.2c-0.1,2.2-0.3,3.6-0.7,4.5c-0.2,0.6-1,1.1-2.4,1.5
		c-1.5,0.4-2.6,0.7-3.3,0.7c-0.7,0-0.7,1-0.7,1.6c0,0.7,0.1,1.1,0.4,1.4l0.1,0.1h0.2c0.5,0,1.7-0.1,3.7-0.2c2-0.1,3.6-0.2,4.8-0.2
		c0.3,0,3.1,0.1,8.6,0.4l0.3,0l0.1-0.3c0.1-0.3,0.2-0.7,0.2-1.2c0-0.6,0-1.7-0.7-1.7c-0.3,0-1.2-0.1-3.1-0.7c-2-0.6-2.4-1-2.4-1.2
		c-0.1-0.4-0.2-1-0.2-2c0.4-8.3,0.7-17.9,1-28.4l14.6,35l0.2,0.1c0.3,0.1,0.6,0.2,0.8,0.2c1.1,0,2.1-0.9,3-2.9l12.9-31.6
		c0.1,0.5,0.3,1.4,0.4,3.5l0.7,20.7v3.8c0,0.9-0.2,1.6-0.6,2.1c-0.2,0.2-0.6,0.5-1.7,0.9c-0.9,0.3-1.6,0.4-2.1,0.4
		c-0.7,0-0.7,1-0.7,1.7c0,0.6,0.1,1.1,0.4,1.3l0.1,0.1l0.2,0c0.7,0,1.7-0.1,2.9-0.2c1.2-0.1,2.3-0.1,3.3-0.2c1,0,2-0.1,2.8-0.1
		c0.1,0,1.7,0.1,8.4,0.4l0.3,0l0.1-0.3c0.1-0.3,0.2-0.7,0.2-1.2C379.6,91.1,379.6,90,378.9,90z"/>
	<path class="st0" d="M433.4,93.2l0.1-0.2c0.1-0.2,0.2-0.4,0.2-1.3c0-0.6,0-1.7-0.7-1.7c-0.3,0-1-0.1-2.4-0.6
		c-1.1-0.4-1.7-0.8-1.9-1.4c-0.7-1.5-1.4-3.2-2-5l-14.3-35.7l-0.1-0.1c-0.7-0.7-1.7-0.6-2.6,0.1c-0.7,0.6-1.6,2.3-2.6,5.1
		l-12.7,30.7c-0.9,2.1-1.7,3.9-2.6,5.2c-0.2,0.3-0.7,0.7-2.1,1.2c-1.4,0.5-2.1,0.6-2.5,0.6c-0.6,0-0.6,0.7-0.6,1.7
		c0,0.6,0.1,1.1,0.4,1.3l0.1,0.1l3.6-0.3c1.6-0.1,3-0.2,4.2-0.2c1.2,0,2.7,0.1,4.6,0.2c2.6,0.2,3.1,0.2,3.2,0.2h0.3l0.1-0.3
		c0.1-0.3,0.2-0.8,0.2-1.4c0-0.7-0.1-1.2-0.5-1.4l-0.1,0c-0.2,0-0.8-0.1-2-0.3c-1.2-0.3-1.7-0.5-2-0.7c-0.4-0.2-0.6-0.6-0.6-1
		c0-0.4,0.2-1.4,1.3-4.3l2.6-6.3l0,0c0,0,0,0,0,0c2.7-0.1,5.3-0.2,7.7-0.2c2.4,0,4.4,0,5.8,0.1c0,0,0,0,0.1,0.1l2.4,6.2
		c0.8,2.2,1.3,3.7,1.3,4.5c0,0.3-0.1,0.5-0.2,0.7c-0.1,0.1-0.3,0.4-1.4,0.7c-0.9,0.3-1.6,0.4-2.1,0.4c-0.7,0-0.7,1-0.7,1.4
		c0,0.8,0.1,1.3,0.4,1.6l0.1,0.1l0.2,0c5.6-0.3,8.5-0.4,8.8-0.4c0.2,0,1.8,0.1,8.6,0.4L433.4,93.2z M413.9,72.5
		c-2,0.1-3.7,0.2-5.2,0.2c-1.5,0-3.1-0.1-4.5-0.2l5.1-12.3L413.9,72.5z"/>
	<path class="st0" d="M470,77c-0.4-1.1-0.8-2.1-1.2-2.8c-0.5-0.8-1.2-1.6-2.2-2.4c-1-0.8-1.7-1.4-2.2-1.8c-0.5-0.3-1.4-0.9-2.6-1.6
		c-1.5-0.9-2-1.3-2.2-1.4l-0.1-0.1c-0.1,0-0.5-0.2-1.9-1.1c-1.3-0.8-1.8-1.1-2-1.3c-0.3-0.2-0.9-0.6-1.7-1.2c-0.8-0.6-1.3-1-1.6-1.4
		c-0.3-0.4-0.7-0.9-1.2-1.5c-0.4-0.5-0.7-1.1-0.9-1.6c-0.1-0.6-0.2-1.2-0.2-1.8c0-1.9,0.5-3.4,1.6-4.5c1-1.1,2.5-1.6,4.5-1.6
		c2.3,0,4.2,0.9,5.8,2.8c1.6,1.9,2.6,3.9,2.8,6c0.2,0.9,1.5,0.9,2.4,0.9c0.7,0,1.1-0.3,1.2-0.9l0-0.1c0-3.9-0.3-7.5-0.8-10.6
		l-0.1-0.3l-0.3-0.1c-0.7-0.1-1.9-0.4-3.5-0.8c-1.7-0.4-3.1-0.7-4-0.9c-1-0.1-2.1-0.2-3.4-0.2c-3.7,0-7,1.2-9.9,3.6
		c-3,2.4-4.4,5.4-4.4,9c0,1.4,0.2,2.7,0.7,3.8c0.4,1.2,1,2.2,1.5,3c0.6,0.8,1.4,1.7,2.5,2.6c1.1,0.9,2,1.6,2.7,2
		c0.7,0.5,1.7,1.1,3,1.9c0.4,0.3,0.6,0.4,0.7,0.5l0.1,0.1c0.4,0.2,1.1,0.6,2.1,1.2c1,0.6,1.7,1,2.2,1.3c0.5,0.3,1.1,0.8,1.8,1.3
		c0.7,0.6,1.3,1.1,1.6,1.6c0.4,0.5,0.7,1.1,1,1.7c0.3,0.7,0.4,1.4,0.4,2.1c0,2.4-0.7,4.2-2,5.4c-1.3,1.2-3,1.8-5,1.8
		c-1.6,0-3.1-0.3-4.3-1c-1.3-0.7-2.3-1.5-3.1-2.6c-0.8-1.1-1.4-2.1-1.8-3.1c-0.4-0.9-0.8-1.8-0.9-2.7c-0.2-0.6-0.9-0.8-2.4-0.8
		c-1.2,0-1.5,0.5-1.5,1c0,0.8,0.2,2.4,0.5,4.9c0.3,2.5,0.7,4.6,1.1,6.2l0.1,0.3l0.3,0.1c5.6,1.3,9.9,1.9,12.6,1.9
		c3.9,0,7.5-1.2,10.5-3.6c3-2.4,4.6-5.6,4.6-9.3C470.6,79.4,470.4,78.1,470,77z"/>
	<path class="st0" d="M518.3,46.3c-2,0.4-3.5,0.7-4.6,0.7c-1.9,0-4.3,0.1-7.4,0.2c-3.1,0.1-5.6,0.2-7.5,0.2c-1.9,0-4.5-0.1-7.5-0.2
		c-3.1-0.1-5.5-0.2-7.4-0.2c-1.1,0-2.7-0.2-4.6-0.7l-0.5-0.1l-1.4,11l0.1,0.1c0.4,0.5,1.1,0.7,2.1,0.7c0.9,0,1.1-0.5,1.1-0.7
		c0.7-2.4,1.5-4,2.5-4.8c1-0.8,2.5-1.2,4.6-1.2c5.2,0,6,0.7,6.1,1c0.2,0.3,0.5,1.6,0.5,6.4v24.7c0,2.5-0.2,4.4-0.5,5.5
		c0,0-0.1,0.3-1.7,0.8c-1.1,0.3-1.9,0.5-2.4,0.5c-0.7,0-0.7,1-0.7,1.7c0,0.7,0.1,1.1,0.4,1.4l0.1,0.1l0.2,0c0.5,0,1.8-0.1,4-0.3
		c2.1-0.1,3.8-0.2,5-0.2c0.9,0,1.8,0,2.8,0.1c1,0,2,0.1,3.2,0.2l3,0.2l0.1-0.3c0.1-0.3,0.2-0.7,0.2-1.2c0-0.6,0-1.7-0.7-1.7
		c-0.3,0-0.8-0.1-2.3-0.5c-1.4-0.4-1.5-0.7-1.5-0.7c-0.4-1.5-0.6-3.4-0.6-5.8V58.4c0-2.9,0.2-5,0.6-6.3c0,0,0.3-0.8,6.2-0.8
		c2.1,0,3.7,0.4,4.6,1.2c1,0.8,1.8,2.5,2.4,4.9c0.1,0.2,0.4,0.6,1.1,0.6c1,0,1.7-0.2,2.1-0.6l0.1-0.1l-1.4-11.1L518.3,46.3z"/>
	<path class="st0" d="M562.9,84.7l0.2-0.5c0.5-1.5,0.9-2.4,1-2.8l0.1-0.3l-0.2-0.2c-0.4-0.4-1.1-0.5-2.2-0.5c-1,0-1.3,0.4-1.4,0.7
		c-0.5,1.5-1.2,2.8-2,4c-0.9,1.2-1.6,1.9-2.3,2.3c-1.8,0.9-4.5,1.4-7.9,1.4h-2.5c-4,0-4.2-0.6-4.2-0.6c-0.4-1.1-0.6-2.9-0.6-5.4
		V72.4c0.3-0.1,1.2-0.3,4.5-0.3c4.6,0,5.8,0.3,6,0.5c0.3,0.2,0.4,0.3,0.5,0.4c0,0.1,0.1,0.3,0.4,0.8c0.2,0.6,0.5,1.5,0.8,2.7
		c0.1,0.4,0.5,0.8,1.5,0.8c0.8,0,1.3-0.1,1.6-0.4l0.1-0.1V63.5l-0.1-0.1c-0.3-0.3-0.8-0.5-1.6-0.5c-0.9,0-1.4,0.3-1.5,0.8
		c-0.1,0.5-0.3,1.1-0.4,1.7c-0.3,1.7-0.7,2-0.9,2.1c-0.2,0.1-1.2,0.3-4.5,0.3h-3.8c-1.7,0-2.3-0.1-2.6-0.2V57.2
		c0-2.4,0.1-4.2,0.4-5.4c0-0.1,0.5-0.6,4.8-0.6h3.5c4.2,0,6.9,1.9,8.3,5.8c0.1,0.3,0.5,0.7,1.3,0.7c0.9,0,1.4-0.1,1.7-0.5l0.2-0.2
		l0-0.2c0-0.2-0.3-1.6-0.9-4c-0.5-2.4-0.9-4.3-1.1-5.7l-0.1-0.4h-0.4c-2.6,0-6.4,0.1-11.5,0.2c-5,0.2-8.5,0.2-10.5,0.2
		c-3,0-6.1-0.1-9-0.3l-0.2,0l-0.1,0.1c-0.3,0.3-0.4,0.8-0.4,1.5c0,0.4,0,1.5,0.7,1.5c0.6,0,1.5,0.2,2.6,0.5c1.3,0.4,1.6,0.8,1.6,0.9
		c0.3,1,0.5,2.8,0.5,5.5v25.8c0,3.1-0.2,5.2-0.4,6c0,0.1-0.3,0.5-1.7,0.8c-1.1,0.3-1.9,0.4-2.5,0.4c-0.6,0-0.6,0.9-0.6,1.6
		c0,0.7,0.1,1.2,0.3,1.4l0.1,0.1l9.3-0.3c2.3-0.1,6.4-0.1,12,0.1c5.8,0.1,9.5,0.2,11.3,0.2h0.4l0-0.4c0.1-0.7,0.3-1.5,0.6-2.6
		c0.3-1.1,0.6-2,0.9-2.7C562.1,86.8,562.4,85.9,562.9,84.7z"/>
	<path class="st0" d="M615,90h-0.2c-1.4,0-3.1-0.7-4.8-2c-1.8-1.4-3.5-3-5.1-4.9c-2.5-3.1-5.1-7-7.6-11.5c0,0,0,0,0,0c0,0,0,0,0.1,0
		c2.3-0.9,4.3-2.5,6-4.8c1.6-2.2,2.5-4.7,2.5-7.2c0-1.8-0.4-3.5-1.1-5c-0.7-1.5-1.6-2.7-2.8-3.6c-1.1-0.9-2.4-1.6-3.8-2.2
		c-1.4-0.6-2.8-1-4.1-1.3c-1.3-0.3-2.6-0.4-3.8-0.4c-1.4,0-3,0-4.9,0.1c-1.8,0-3.4,0.1-4.7,0.1c-1.2,0-4.3-0.1-9-0.2l-0.1,0
		l-0.1,0.1c-0.3,0.2-0.4,0.7-0.4,1.6c0,0.4,0,1.5,0.7,1.5c0.5,0,1.3,0.2,2.5,0.6c1.5,0.5,1.7,0.8,1.7,0.8l0,0
		c0.3,1.1,0.4,2.9,0.4,5.5v25.8c0,4.1-0.2,5.5-0.4,6c0,0.1-0.3,0.5-1.7,0.8c-1.1,0.3-2,0.4-2.5,0.4c-0.6,0-0.6,0.9-0.6,1.5
		c0,0.8,0.1,1.2,0.3,1.5l0.1,0.2l1.6-0.2c0.9,0,2-0.1,3.5-0.2l0.2,0c1.5-0.1,2.9-0.1,4.1-0.1c1.4,0,4.7,0.1,9.7,0.4l0.3,0l0.1-0.3
		c0.1-0.3,0.2-0.7,0.2-1.3c0-0.6,0-1.6-0.7-1.6c-0.6,0-1.6-0.2-2.9-0.5c-1.6-0.4-1.9-0.8-2-1c-0.3-1.1-0.5-3-0.5-5.7v-9.6
		c0-0.6,0.2-0.7,0.7-0.7c1,0,1.3,0.1,1.5,0.2c0.3,0.1,0.6,0.3,1,0.7c0.4,0.4,0.8,0.9,1.3,1.6c0.5,0.7,1,1.4,1.5,2.1
		c0.4,0.7,1.1,1.6,1.9,2.8c0.8,1.2,1.5,2.3,2.2,3.2c1,1.6,2,2.9,2.9,3.9c0.9,1,2.1,2.1,3.5,3.2c1.4,1.1,3.1,1.9,5,2.5
		c1.9,0.6,4.1,0.8,6.4,0.8c0.9,0,1.6,0,2.2-0.1l0.2,0l0.1-0.2c0.2-0.4,0.3-0.9,0.3-1.4c0-0.5-0.1-1-0.3-1.3L615,90z M596.6,60.2
		c0,2.4-0.6,4.4-1.9,5.9c-1.3,1.5-2.6,2.2-4.2,2.2h-1.8c-1.3,0-2.3-0.1-3-0.4c-0.4-0.2-0.9-0.5-0.9-1.6v-7.8
		c0.1-5.7,0.5-6.6,0.6-6.7c0.7-0.3,1.9-0.4,3.8-0.4C594.2,51.4,596.6,54.3,596.6,60.2z"/>
	<path class="st0" d="M621.4,44.5L621.4,44.5c-0.8-0.4-1.5-0.6-2.2-0.6c-1.2,0-2.3,0.3-3.3,1c-1.1,0.7-1.6,1.5-1.6,2.4
		c0,0.8,0.5,1.7,1.5,2.8c1.1,1.2,1.3,1.9,1.3,2.1c0,0.2,0,0.5-0.3,1.2c-0.2,0.5-0.7,1.3-1.4,2.2c-0.7,0.9-1.7,1.8-2.9,2.5l-0.3,0.2
		l0.1,0.3c0.2,0.4,0.5,0.9,1,1.2c0.5,0.4,0.9,0.6,1.3,0.6c0.2,0,0.5-0.1,1.2-0.5c0.5-0.3,1.2-0.8,1.9-1.4c0.7-0.6,1.5-1.3,2.2-2.1
		c0.7-0.8,1.3-1.8,1.8-3c0.5-1.2,0.7-2.4,0.7-3.7C622.5,47.3,622.2,45.7,621.4,44.5L621.4,44.5z"/>
	<path class="st0" d="M656.6,77c-0.4-1.1-0.8-2.1-1.2-2.8c-0.5-0.8-1.2-1.6-2.2-2.4c-1-0.8-1.7-1.4-2.2-1.8
		c-0.5-0.3-1.4-0.9-2.6-1.6c-1.5-0.9-2-1.3-2.2-1.4l-0.1-0.1c-0.1,0-0.5-0.2-1.9-1.1c-1-0.6-1.7-1.1-2-1.3c-0.3-0.2-0.9-0.6-1.7-1.2
		c-0.8-0.6-1.3-1-1.6-1.4c-0.3-0.4-0.7-0.9-1.2-1.5c-0.4-0.5-0.7-1.1-0.9-1.6c-0.1-0.6-0.2-1.2-0.2-1.8c0-1.9,0.5-3.4,1.6-4.5
		c1-1.1,2.5-1.6,4.5-1.6c2.3,0,4.2,0.9,5.8,2.8c1.6,1.9,2.6,3.9,2.8,5.9c0.2,0.9,1.5,0.9,2.4,0.9c0.7,0,1.1-0.3,1.2-0.9l0-0.1
		c0-3.9-0.3-7.5-0.8-10.6l-0.1-0.3l-0.3-0.1c-0.7-0.1-1.9-0.4-3.5-0.8c-1.7-0.4-3.1-0.7-4-0.9c-1-0.1-2.1-0.2-3.4-0.2
		c-3.7,0-7,1.2-9.9,3.6c-3,2.4-4.4,5.4-4.4,9c0,1.4,0.2,2.7,0.7,3.8c0.4,1.2,1,2.2,1.5,3c0.6,0.8,1.4,1.7,2.5,2.6
		c1.1,0.9,2,1.6,2.7,2c0.7,0.5,1.7,1.1,3,1.9c0.4,0.3,0.6,0.4,0.7,0.5l0.1,0.1c0.4,0.2,1.1,0.6,2.1,1.2c1,0.6,1.7,1,2.2,1.3
		c0.5,0.3,1.1,0.8,1.8,1.3c0.7,0.6,1.3,1.1,1.6,1.6c0.4,0.5,0.7,1.1,1,1.7c0.3,0.7,0.4,1.4,0.4,2.1c0,2.4-0.7,4.2-2,5.4
		c-1.3,1.2-3,1.8-5,1.8c-1.6,0-3.1-0.3-4.3-1c-1.3-0.7-2.3-1.5-3.1-2.6c-0.8-1.1-1.4-2.1-1.8-3.1c-0.4-0.9-0.7-1.8-0.9-2.7
		c-0.2-0.6-0.9-0.8-2.4-0.8c-1.2,0-1.5,0.5-1.5,1c0,0.8,0.2,2.4,0.5,4.9c0.3,2.5,0.7,4.6,1.1,6.2l0.1,0.3l0.3,0.1
		c5.6,1.3,9.9,1.9,12.6,1.9c3.9,0,7.5-1.2,10.5-3.6c3-2.4,4.6-5.6,4.6-9.3C657.1,79.4,656.9,78.1,656.6,77z"/>
	<path class="st0" d="M264.3,118H264c-0.3,0-1,0.1-1.5,0.1c-0.8,0.1-1.4,0.1-1.9,0.1c-0.3,0-1.4-0.1-3.6-0.2l-0.2,0l-0.1,0.2
		c-0.1,0.2-0.2,0.4-0.2,0.8c0,0.5,0.2,0.8,0.6,0.8c0.1,0,0.4,0,1.1,0.2c0.7,0.2,0.8,0.3,0.8,0.3c0.1,0.2,0.2,0.7,0.2,2.1v7.1
		c0,2.1-0.4,3.7-1.2,4.6c-0.8,0.9-1.9,1.3-3.3,1.3c-1.4,0-2.5-0.5-3.2-1.6c-0.8-1.1-1.2-2.6-1.2-4.5v-6.7c0-1,0.1-1.8,0.2-2.4
		c0.1,0,0.2-0.1,0.5-0.2c0.7-0.2,0.9-0.2,0.9-0.2c0.5,0,0.5-0.7,0.5-0.9c0-0.2,0-0.4-0.1-0.6l-0.1-0.3l-0.4,0
		c-2.1,0.1-3.4,0.2-3.7,0.2c-0.2,0-2.8-0.1-3.8-0.2l-0.2,0l-0.1,0.1c-0.2,0.2-0.2,0.4-0.2,0.8c0,0.6,0.2,0.9,0.5,0.9
		c0.1,0,0.4,0,0.9,0.2c0.4,0.1,0.6,0.2,0.5,0.2c0.1,0.2,0.2,0.7,0.2,2.3v6.3c0,3.2,0.7,5.6,2.1,7.1c1.4,1.5,3.4,2.2,5.8,2.2
		c1.1,0,2.2-0.2,3.1-0.5c0.9-0.3,1.7-0.8,2.5-1.5c0.7-0.7,1.3-1.6,1.7-2.8c0.4-1.1,0.6-2.5,0.6-4v-6.8c0-1.1,0.1-1.8,0.2-2.2
		c0.1-0.1,0.3-0.3,0.9-0.4c0.7-0.2,1-0.2,1.1-0.2c0.5,0,0.5-0.7,0.5-0.9c0-0.2,0-0.4-0.1-0.6L264.3,118z"/>
	<path class="st0" d="M303.3,118H303c-0.3,0-1,0.1-1.5,0.1c-0.8,0.1-1.4,0.1-1.9,0.1c-0.3,0-1.5-0.1-3.6-0.2l-0.2,0l-0.1,0.2
		c-0.1,0.2-0.2,0.4-0.2,0.8c0,0.6,0.2,0.8,0.6,0.8c0.3,0,0.7,0.1,1.2,0.2c0.6,0.1,0.7,0.3,0.7,0.3v0c0.2,0.5,0.3,1.2,0.3,2.2v7.9
		c-0.6-0.9-1.6-2.1-2.8-3.7c-1.7-2.2-3-4-4-5.4c-1-1.3-1.6-2.4-2-3l-0.1-0.3l-0.3,0c-1.1,0.1-2,0.1-2.6,0.1c-0.3,0-2-0.1-3.4-0.1
		l-0.2,0l-0.1,0.1c-0.2,0.2-0.2,0.4-0.2,0.9c0,0.2,0,0.8,0.6,0.8c0.2,0,0.6,0.1,1.2,0.2c0.6,0.1,0.7,0.2,0.7,0.2
		c0.1,0.2,0.3,0.6,0.3,1.9v11.4c0,1.4-0.1,2-0.2,2.2c-0.1,0.2-0.4,0.3-0.8,0.4c-0.5,0.1-0.9,0.2-1.2,0.2c-0.5,0-0.5,0.7-0.5,0.9
		c0,0.4,0.1,0.6,0.2,0.8l0.1,0.1l0.2,0c0.2,0,0.8-0.1,1.5-0.1c0.7,0,1.4-0.1,1.9-0.1c0.1,0,0.5,0,3.6,0.2l0.3,0l0.1-0.3
		c0.1-0.2,0.1-0.4,0.1-0.7c0-0.2,0-0.8-0.5-0.8c-0.1,0-0.5,0-1.2-0.2c-0.7-0.2-0.8-0.3-0.8-0.3c-0.1-0.3-0.2-0.9-0.2-2.2v-10.5
		l10.8,14.3c0.4,0.6,0.8,0.9,1.3,0.9c0.5,0,0.8-0.1,0.9-0.2l0.1-0.1l0-0.2c-0.1-2-0.1-3.4-0.1-4v-11c0-1,0.1-1.7,0.3-2.2
		c0.1-0.1,0.3-0.3,0.8-0.4c0.7-0.2,1-0.2,1.1-0.2c0.5,0,0.5-0.7,0.5-0.9c0-0.3,0-0.5-0.1-0.7L303.3,118z"/>
	<path class="st0" d="M328,120.2c0.1,0,0.2-0.1,0.6-0.2c0.7-0.2,0.9-0.2,0.9-0.2c0.5,0,0.5-0.7,0.5-0.9c0-0.2,0-0.4-0.1-0.6
		l-0.1-0.3l-0.3,0c-1.5,0.1-3.5,0.2-3.7,0.2c-0.5,0-1.3,0-2.2-0.1c-1-0.1-1.5-0.1-1.6-0.1h-0.2l-0.1,0.1c-0.2,0.2-0.2,0.4-0.2,0.8
		c0,0.6,0.2,0.9,0.5,0.9c0.1,0,0.4,0,0.9,0.2c0.4,0.1,0.5,0.2,0.5,0.2c0.1,0.4,0.2,1.2,0.2,2.3v11.2c0,0.9-0.1,1.7-0.2,2.2
		c-0.1,0-0.2,0.1-0.5,0.2c-0.6,0.2-0.8,0.2-1,0.2c-0.5,0-0.5,0.7-0.5,1c0,0.3,0.1,0.5,0.2,0.7l0.1,0.1l0.2,0c0.2,0,0.6,0,0.9-0.1
		l0.3,0c0.5,0,1-0.1,1.4-0.1c0.4,0,0.8,0,1.2,0c0.1,0,0.5,0,3.7,0.2l0.3,0l0.1-0.3c0.1-0.2,0.1-0.3,0.1-0.5c0-0.3,0-1-0.5-1
		c-0.1,0-0.3,0-0.9-0.2c-0.3-0.1-0.5-0.2-0.5-0.2c-0.1-0.6-0.2-1.4-0.2-2.4v-10.9C327.8,121.6,327.8,120.8,328,120.2z"/>
	<path class="st0" d="M368.4,118l-0.3,0c-0.3,0-0.8,0.1-1.4,0.1c-0.7,0-1.2,0.1-1.7,0.1c-0.4,0-1.1,0-1.8-0.1
		c-0.8-0.1-1.2-0.1-1.4-0.1h-0.3l-0.1,0.2c-0.1,0.1-0.1,0.3-0.1,0.7c0,0.4,0,0.6,0.2,0.7l0.2,0.2h0.2c0.4,0,0.8,0.1,1.2,0.2
		c0.4,0.2,0.4,0.3,0.4,0.4c0,0.3-0.1,0.8-0.5,1.8l-3.9,9.2c-0.2-0.5-0.5-1.1-0.8-1.8c-0.3-0.8-0.6-1.5-0.9-2.1
		c-0.1-0.3-0.3-0.8-0.6-1.4c-1.9-4.7-2.2-5.6-2.2-5.8c0,0,0-0.1,0.2-0.3c0.2-0.1,0.4-0.2,0.6-0.3c0.3-0.1,0.4-0.1,0.5-0.1
		c0.2,0,0.5-0.1,0.5-0.8c0-0.4-0.1-0.6-0.2-0.8l-0.1-0.2l-0.2,0c-2.4,0.1-3.7,0.2-4,0.2c-0.5,0-1.2,0-2.1-0.1
		c-0.9-0.1-1.5-0.1-1.6-0.1h-0.2l-0.1,0.2c-0.1,0.2-0.2,0.4-0.2,0.8c0,0.6,0.2,0.9,0.5,0.9c0.2,0,0.6,0.1,1,0.2
		c0.5,0.1,0.6,0.3,0.6,0.4c0.3,0.5,0.6,1.4,1.1,2.5l6,14.9c0.2,0.3,0.5,0.5,0.8,0.5c0.7,0,1.2-0.4,1.5-1.3l6-14.1
		c0.5-1.2,0.9-2,1.2-2.4c0.2-0.2,0.4-0.4,0.8-0.5c0.5-0.2,0.7-0.2,0.9-0.2c0.5,0,0.5-0.5,0.5-0.9c0-0.3,0-0.4-0.1-0.6L368.4,118z"/>
	<path class="st0" d="M401,132.2c-0.7,0-0.8,0.4-0.8,0.5c-0.2,0.6-0.5,1.2-0.8,1.6c-0.4,0.6-0.7,0.8-0.9,0.9
		c-0.7,0.4-1.8,0.6-3.3,0.6h-1.1c-1.1,0-1.5-0.1-1.6-0.2c-0.1-0.5-0.2-1.2-0.2-2.1v-4.2c0.2,0,0.7-0.1,1.7-0.1c2,0,2.4,0.1,2.4,0.2
		l0.2,0.1c0,0.1,0.1,0.1,0.1,0.3c0.1,0.2,0.2,0.5,0.4,1.1c0.1,0.2,0.3,0.5,0.9,0.5c0.4,0,0.7-0.1,0.9-0.2l0.1-0.1v-5.8l-0.1-0.1
		c-0.2-0.2-0.6-0.3-0.9-0.3c-0.7,0-0.9,0.4-0.9,0.5c-0.1,0.2-0.1,0.5-0.2,0.8c-0.1,0.6-0.3,0.7-0.2,0.7h0c0,0-0.3,0.1-1.8,0.1h-1.6
		c-0.4,0-0.7,0-0.8,0v-4.3c0-0.9,0-1.6,0.1-2.1c0.1,0,0.6-0.1,1.8-0.1h1.5c1.7,0,2.7,0.8,3.3,2.3c0.1,0.2,0.3,0.5,0.8,0.5
		c0.4,0,0.7-0.1,0.9-0.3l0.2-0.2l0-0.2c0-0.1-0.1-0.7-0.4-1.7c-0.2-1-0.4-1.8-0.5-2.4l0-0.4h-0.4c-1.2,0-2.8,0-4.9,0.1
		c-2.2,0.1-3.6,0.1-4.5,0.1c-1.3,0-2.5,0-3.8-0.1l-0.2,0l-0.1,0.1c-0.2,0.2-0.2,0.4-0.2,0.8c0,0.6,0.2,0.9,0.5,0.9
		c0.2,0,0.5,0,1,0.2c0.4,0.1,0.5,0.2,0.5,0.2c0.1,0.3,0.2,0.9,0.2,2.2v11c0,1.6-0.1,2.3-0.2,2.4c0,0-0.1,0.1-0.6,0.2
		c-0.6,0.1-0.8,0.2-1,0.2c-0.5,0-0.5,0.6-0.5,0.9c0,0.4,0.1,0.6,0.2,0.8l0.1,0.1l4-0.1c1,0,2.6,0,5.1,0c2.5,0.1,4,0.1,4.8,0.1h0.4
		l0-0.4c0-0.3,0.1-0.6,0.2-1.1c0.1-0.5,0.3-0.8,0.4-1.1l0.5-1.4c0.2-0.6,0.4-1,0.4-1.2l0.1-0.2l-0.2-0.2
		C401.9,132.3,401.5,132.2,401,132.2z"/>
	<path class="st0" d="M439.2,136.3H439c-0.6,0-1.2-0.3-1.9-0.8c-0.8-0.6-1.5-1.3-2.1-2.1c-1-1.3-2.1-2.8-3.1-4.6
		c0.9-0.4,1.8-1.1,2.4-2c0.7-1,1.1-2.1,1.1-3.2c0-0.8-0.2-1.6-0.5-2.2c-0.3-0.7-0.7-1.2-1.3-1.6c-0.5-0.4-1.1-0.7-1.7-1
		c-0.6-0.3-1.2-0.5-1.8-0.6c-1.2-0.2-2.2-0.2-3.7-0.1c-0.8,0-1.5,0-2,0c-0.5,0-1.8,0-3.8-0.1l-0.2,0l-0.1,0.1
		c-0.3,0.2-0.3,0.5-0.3,0.9c0,0.6,0.2,0.9,0.5,0.9c0.1,0,0.4,0,1,0.2c0.4,0.1,0.5,0.2,0.6,0.2c0.1,0.5,0.1,1.2,0.1,2.2v11
		c0,1.8-0.1,2.3-0.1,2.4c0,0-0.1,0.1-0.6,0.2c-0.6,0.1-0.9,0.2-1,0.2c-0.5,0-0.5,0.6-0.5,0.9c0,0.4,0.1,0.6,0.2,0.8l0.1,0.2l0.8-0.1
		c0.4,0,0.9,0,1.5-0.1c0.6,0,1.2,0,1.7,0c0.6,0,2,0.1,4.1,0.2l0.3,0l0.1-0.3c0.1-0.2,0.1-0.4,0.1-0.6c0-0.3,0-0.9-0.5-0.9
		c-0.2,0-0.5,0-1.2-0.2c-0.6-0.1-0.7-0.3-0.7-0.3c-0.1-0.4-0.2-1.2-0.2-2.3v-4.1c0-0.1,0-0.1,0-0.1c0.4,0,0.5,0,0.5,0.1
		c0.1,0,0.2,0.1,0.3,0.2c0.1,0.1,0.3,0.4,0.5,0.6c0.2,0.3,0.4,0.6,0.6,0.9l0.8,1.2c0.3,0.5,0.7,1,0.9,1.4c0.4,0.7,0.9,1.2,1.3,1.7
		c0.4,0.4,0.9,0.9,1.5,1.4c0.6,0.5,1.4,0.9,2.2,1.1c0.8,0.2,1.8,0.4,2.8,0.4c0.4,0,0.7,0,1-0.1l0.2,0l0.1-0.2
		c0.1-0.2,0.2-0.5,0.2-0.7c0-0.3-0.1-0.5-0.2-0.7L439.2,136.3z M431,123.9c0,1-0.2,1.8-0.8,2.4c-0.5,0.6-1,0.9-1.6,0.9h-0.8
		c-0.5,0-0.9-0.1-1.2-0.2c-0.1,0-0.2-0.1-0.2-0.4v-3.3c0-1.9,0.1-2.5,0.2-2.7c0.2-0.1,0.6-0.1,1.4-0.1
		C430.1,120.4,431,121.5,431,123.9z"/>
	<path class="st0" d="M469.4,129.7c-0.2-0.4-0.5-0.7-1-1.1c-0.4-0.4-0.7-0.6-1-0.8c-0.2-0.1-0.6-0.4-1.1-0.7
		c-0.7-0.4-0.9-0.6-0.9-0.6l-0.1-0.1c0,0-0.2-0.1-0.8-0.4c-0.4-0.3-0.7-0.5-0.8-0.5c-0.1-0.1-0.4-0.3-0.7-0.5
		c-0.4-0.3-0.6-0.5-0.6-0.5c-0.1-0.2-0.3-0.4-0.5-0.6c-0.2-0.2-0.3-0.4-0.3-0.6c-0.1-0.2-0.1-0.5-0.1-0.7c0-0.7,0.2-1.3,0.6-1.7
		c0.4-0.4,1-0.6,1.7-0.6c0.9,0,1.6,0.4,2.3,1.1c0.7,0.8,1,1.6,1.2,2.4c0.1,0.6,1,0.6,1.3,0.6c0.4,0,0.7-0.2,0.8-0.6l0-0.1
		c0-1.7-0.1-3.2-0.4-4.5l-0.1-0.3l-0.3-0.1c-0.3-0.1-0.8-0.2-1.5-0.4c-0.7-0.2-1.3-0.3-1.7-0.4c-0.4-0.1-0.9-0.1-1.5-0.1
		c-1.6,0-3.1,0.5-4.4,1.6c-1.3,1.1-2,2.4-2,4c0,0.6,0.1,1.2,0.3,1.7c0.2,0.5,0.4,1,0.7,1.3c0.3,0.4,0.6,0.7,1.1,1.1
		c0.5,0.4,0.8,0.7,1.2,0.9c0.3,0.2,0.7,0.5,1.3,0.8c0.2,0.1,0.2,0.2,0.2,0.2l0.1,0.1c0.2,0.1,0.5,0.3,0.9,0.5
		c0.4,0.2,0.7,0.4,0.9,0.6c0.2,0.1,0.5,0.3,0.8,0.6c0.3,0.2,0.5,0.4,0.6,0.6c0.1,0.2,0.3,0.4,0.4,0.7c0.1,0.3,0.2,0.5,0.2,0.8
		c0,1-0.2,1.7-0.8,2.1c-0.5,0.5-1.2,0.7-2,0.7c-0.6,0-1.2-0.1-1.7-0.4c-0.5-0.3-0.9-0.6-1.2-1c-0.3-0.5-0.6-0.9-0.8-1.3
		c-0.2-0.4-0.3-0.7-0.4-1.1c-0.2-0.5-0.9-0.5-1.2-0.5c-0.7,0-0.9,0.4-0.9,0.7c0,0.3,0.1,1,0.2,2.1c0.1,1.1,0.3,2,0.5,2.7l0.1,0.3
		l0.3,0.1c2.5,0.6,4.2,0.8,5.4,0.8c1.7,0,3.3-0.5,4.6-1.6c1.3-1.1,2-2.5,2-4.2c0-0.6-0.1-1.1-0.3-1.7
		C469.8,130.4,469.6,130,469.4,129.7z"/>
	<path class="st0" d="M494.7,120.2c0.1,0,0.2-0.1,0.6-0.2c0.7-0.2,0.9-0.2,0.9-0.2c0.5,0,0.5-0.7,0.5-0.9c0-0.2,0-0.4-0.1-0.6
		l-0.1-0.3l-0.3,0c-1.5,0.1-3.5,0.2-3.7,0.2c-0.5,0-1.3,0-2.2-0.1c-1-0.1-1.5-0.1-1.6-0.1h-0.2l-0.1,0.1c-0.2,0.2-0.2,0.4-0.2,0.8
		c0,0.6,0.2,0.9,0.5,0.9c0.1,0,0.4,0,0.9,0.2c0.4,0.1,0.5,0.2,0.5,0.2c0.1,0.4,0.2,1.2,0.2,2.3v11.2c0,0.9-0.1,1.7-0.2,2.2
		c-0.1,0-0.2,0.1-0.5,0.2c-0.6,0.2-0.8,0.2-1,0.2c-0.5,0-0.5,0.7-0.5,1c0,0.3,0.1,0.5,0.2,0.7l0.1,0.1l0.2,0c0.2,0,0.6,0,0.9-0.1
		l0.3,0c0.5,0,1-0.1,1.4-0.1c0.4,0,0.8,0,1.2,0c0.1,0,0.5,0,3.7,0.2l0.3,0l0.1-0.3c0.1-0.2,0.1-0.3,0.1-0.5c0-0.3,0-1-0.5-1
		c-0.1,0-0.3,0-0.9-0.2c-0.3-0.1-0.5-0.2-0.5-0.2c-0.1-0.6-0.2-1.4-0.2-2.4v-10.9C494.5,121.6,494.6,120.8,494.7,120.2z"/>
	<path class="st0" d="M532.2,117.7c-0.8,0.2-1.5,0.3-1.9,0.3c-0.8,0-1.8,0.1-3.2,0.1c-1.4,0-2.4,0.1-3.2,0.1c-0.8,0-1.8,0-3.2-0.1
		c-1.3,0-2.4-0.1-3.2-0.1c-0.4,0-1.1-0.1-1.9-0.3l-0.5-0.1l-0.6,5.1l0.1,0.1c0.2,0.3,0.6,0.4,1.1,0.4c0.5,0,0.7-0.3,0.7-0.5
		c0.3-1,0.6-1.6,1-1.9c0.4-0.3,1-0.5,1.8-0.5c2,0,2.4,0.3,2.4,0.3c0,0.1,0.2,0.4,0.2,2.6v10.5c0,1-0.1,1.7-0.2,2.2
		c0,0-0.2,0.1-0.5,0.2c-0.6,0.2-0.8,0.2-1,0.2c-0.5,0-0.5,0.7-0.5,1c0,0.4,0.1,0.6,0.2,0.8l0.1,0.1l0.2,0c0.2,0,0.8-0.1,1.7-0.1
		c0.9-0.1,1.6-0.1,2.1-0.1c0.4,0,0.8,0,1.2,0c0.4,0,0.9,0,1.3,0.1l1.4,0.1l0.1-0.3c0.1-0.2,0.1-0.4,0.1-0.6c0-0.3,0-1-0.5-1
		c-0.1,0-0.3,0-0.9-0.2c-0.3-0.1-0.4-0.2-0.5-0.2c-0.2-0.6-0.2-1.4-0.2-2.3v-10.5c0-1.2,0.1-2,0.2-2.6c0.1-0.1,0.6-0.2,2.4-0.2
		c0.8,0,1.4,0.2,1.8,0.5c0.4,0.3,0.7,1,1,2c0,0.1,0.2,0.4,0.7,0.4c0.5,0,0.9-0.1,1.1-0.3l0.2-0.1l-0.6-5.1L532.2,117.7z"/>
	<path class="st0" d="M569.9,118l-1.2,0.1c-0.4,0-0.7,0.1-1.1,0.1c-0.4,0-0.7,0-1.2,0c-0.4,0-1.5-0.1-3.5-0.2l-0.2,0l-0.1,0.2
		c-0.1,0.2-0.2,0.4-0.2,0.8c0,0.7,0.3,0.8,0.5,0.8c0.5,0,0.9,0.1,1.2,0.2c0.2,0.1,0.3,0.2,0.3,0.2c0,0.1-0.1,0.5-1.1,2.3
		c-0.7,1.2-1.4,2.3-2.2,3.5l-2.8-5.2c-0.2-0.4-0.2-0.5-0.2-0.6c0-0.1,0.2-0.2,0.3-0.2c0.3-0.1,0.6-0.2,0.9-0.2
		c0.5,0,0.5-0.6,0.5-0.8c0-0.4,0-0.6-0.1-0.7l-0.1-0.2l-0.3,0c-2.3,0.1-3.6,0.2-4,0.2c-2.2,0-3.4,0-3.9,0.1l-0.2,0l-0.1,0.2
		c-0.1,0.1-0.1,0.3-0.1,0.6c0,0.6,0.3,0.7,0.5,0.7c0.1,0,0.3,0,0.7,0.1c0.4,0.1,0.6,0.2,0.7,0.3c0.3,0.2,0.7,0.6,1.4,1.9l1.2,2.1
		c0.5,0.9,0.9,1.6,1.1,2c0.2,0.4,0.5,0.9,0.8,1.5c0.3,0.6,0.5,1,0.6,1.2c0.1,0.3,0.1,0.4,0.1,0.4l0,4.3c0,1.1-0.1,1.8-0.2,2.4
		c0,0-0.2,0.1-0.5,0.2c-0.6,0.2-0.8,0.2-0.9,0.2c-0.5,0-0.5,0.6-0.5,0.9c0,0.4,0.1,0.6,0.2,0.8l0.1,0.1l0.2,0c0.2,0,0.8-0.1,1.7-0.1
		c0.9-0.1,1.6-0.1,2.1-0.1c0.4,0,0.8,0,1.2,0c0.4,0,0.8,0,1.3,0.1l1.4,0.1l0.1-0.3c0.1-0.2,0.1-0.4,0.1-0.6c0-0.2,0-0.9-0.5-0.9
		c0,0-0.2,0-0.8-0.2c-0.3-0.1-0.5-0.2-0.5-0.2c-0.1-0.6-0.2-1.4-0.2-2.4l0-4.5c0-0.1,0.3-0.8,2.1-3.7c1.5-2.4,2.5-4,3-4.7
		c0.2-0.2,0.5-0.4,0.9-0.6c0.6-0.2,0.9-0.2,1.1-0.2c0.5,0,0.5-0.7,0.5-0.9c0-0.2,0-0.4-0.1-0.6L569.9,118z"/>
</g>
<path class="st0" d="M134,21.1H15.5c0,25.7,0,51.5,0,77.2c0,20.2,9,35.5,28,45.6c9.7,5.1,19.3,10.4,28.9,15.7
	c0.8,0.5,1.4,0.7,2.3,1.6c1-0.9,1.5-1.1,2.3-1.6c9.6-5.3,19.2-10.6,28.9-15.7c19-10.1,28-25.4,28-45.6C134,72.6,134,46.9,134,21.1z"
	/>
<g id="Shepherd_x27_s_Staffs_1_">
	<path class="st1" d="M97.7,66.2c0.8,0.1,1.7,0,2.4-0.3c0.9-0.4,1.6-1.4,1.6-2.3c-0.1-0.3-0.2-0.4-0.5-0.6c-0.5-0.2-1-0.7-1-1.3
		c0.1-0.4,0.2-0.9,0.3-1.3c0.7-2.7,1.5-5.8-0.3-8.1v0c-1.5-2-3.8-3.1-6.6-3.1c0,0-0.1,0-0.1,0c-0.1,0-0.2,0-0.3,0
		c-0.6,0-1.2,0.1-1.5,0.5c1.8,1.1,3.1,2.8,3.5,4.5c0.6,0.3,1,1,1.2,1.4c0.3,0.6,0,1.7-0.4,3c-0.4,1.6-0.9,3.3-0.6,4.9
		C95.6,64,96.3,65.7,97.7,66.2z"/>
	<path class="st1" d="M91.1,66.2c0.8,0.1,1.7,0,2.4-0.3c0.9-0.4,1.6-1.4,1.6-2.3c-0.1-0.3-0.2-0.4-0.5-0.6c-0.5-0.2-1-0.7-1-1.3
		c0.1-0.4,0.2-0.9,0.3-1.3c0.7-2.7,1.5-5.8-0.3-8.1v0c-1.5-2-3.8-3.1-6.6-3.1c0,0-0.1,0-0.1,0c-0.1,0-0.2,0-0.3,0
		c-0.6,0-1.2,0.1-1.5,0.5c1.8,1.1,3.1,2.8,3.5,4.5c0.6,0.3,1,1,1.2,1.4c0.3,0.6,0,1.7-0.4,3c-0.4,1.6-0.9,3.3-0.6,4.9
		C89.1,64,89.7,65.7,91.1,66.2z"/>
	<path class="st1" d="M84.7,66.2c0.8,0.1,1.7,0,2.4-0.3c0.9-0.4,1.6-1.4,1.6-2.3c-0.1-0.2-0.2-0.4-0.5-0.6c-0.5-0.2-1-0.7-1-1.3
		c0.1-0.4,0.2-0.9,0.3-1.3c0.7-2.7,1.5-5.8-0.3-8.1v0c-1.5-2-3.8-3.1-6.6-3.1c0,0-0.1,0-0.1,0c-0.1,0-0.2,0-0.3,0
		c-0.6,0-1.2,0.1-1.5,0.5c1.8,1.1,3.1,2.8,3.5,4.5c0.6,0.3,1,1,1.2,1.4c0.3,0.6,0,1.7-0.4,3c-0.4,1.6-0.9,3.3-0.6,4.9
		C82.7,64,83.3,65.7,84.7,66.2z"/>
	<path class="st1" d="M104.2,66.2c0.8,0.1,1.7,0,2.4-0.3c0.9-0.4,1.6-1.4,1.6-2.3c-0.1-0.3-0.2-0.4-0.5-0.6c-0.5-0.2-1-0.7-1-1.3
		c0.1-0.4,0.2-0.9,0.3-1.3c0.7-2.7,1.5-5.8-0.3-8.1v0c-1.5-2-3.8-3.1-6.6-3.1c0,0-0.1,0-0.1,0c-0.1,0-0.2,0-0.3,0
		c-0.6,0-1.2,0.1-1.5,0.5c1.8,1.1,3.1,2.8,3.5,4.5c0.6,0.3,1,1,1.2,1.4c0.3,0.6,0,1.7-0.4,3c-0.4,1.6-0.9,3.3-0.6,4.9
		C102.1,64,102.7,65.7,104.2,66.2z"/>
	<path class="st1" d="M110.7,66.2c0.8,0.1,1.7,0,2.4-0.3c0.9-0.4,1.6-1.4,1.6-2.3c-0.1-0.2-0.2-0.4-0.5-0.6c-0.5-0.2-1-0.7-1-1.3
		c0.1-0.4,0.2-0.9,0.3-1.3c0.7-2.7,1.5-5.8-0.3-8.1v0c-1.5-2-3.8-3.1-6.6-3.1c0,0-0.1,0-0.1,0c-0.1,0-0.2,0-0.3,0
		c-0.6,0-1.2,0.1-1.5,0.5c1.8,1.1,3.1,2.8,3.5,4.5c0.6,0.3,1,1,1.2,1.4c0.3,0.6,0,1.7-0.4,3c-0.4,1.6-0.9,3.3-0.6,4.9
		C108.6,64,109.2,65.7,110.7,66.2z"/>
	<path class="st1" d="M67.9,62.2c-0.2-0.6-0.5-1.3-0.8-1.9c-0.6-1.3-1.2-2.6-1.3-4.1l0,0l0,0c0.2-0.8,0.7-1.5,1.4-1.8
		c0.8-2.1,1.9-3.7,3.4-4.6v-0.1c-1.9-0.8-4.5-0.5-6.2,0.7c-2.5,1.8-3.7,4.3-3.4,7.3c0.5,1.6,1.2,3.2,1.9,4.7c0.9,2,1.9,4.1,2.2,6.4
		c0.1,11,0.1,19.4,0.2,29.1l4.4,3.9l0.2,0.2l-0.1-31.5C69.8,67.7,69.2,64.9,67.9,62.2z"/>
	<path class="st1" d="M77.3,65.9c0.6,0.5,1.6,0.7,2.5,0.4c0.8-0.2,1.9-0.9,2.3-1.8c0.3-0.7-0.1-1-0.6-1.3c-0.3-0.2-0.6-0.4-0.7-0.7
		c-0.1-0.4-0.1-1,0.1-1.6c0.9-2.6,1.8-6.2-0.2-8.5l0,0c-1-1.4-2.5-2.3-4.6-2.9c-2.5-0.4-4.7,0.3-6.5,1.9c-3.7,3.7-1.9,7.8-0.1,11.7
		c0.8,1.8,1.6,3.6,1.9,5.4l0.3,35c0.4,0.7,1.1,1.2,1.8,1.8c0.2,0.1,0.3,0.3,0.5,0.4l0.1,0.1l2.3-2.1l0-2.4
		c-0.1-10-0.1-20.4-0.2-30.4c0.3-3.7-1-6.8-2.4-9.8c-0.5-1.2-1.1-2.4-1.5-3.6c-0.3-1.1,0-2.1,0.9-2.8c0.8-0.4,1.9-0.6,2.7-0.1
		c0.9,0.6,1.3,1.6,1.1,2.8c-0.1,0.4-0.2,0.9-0.4,1.3C76,61.1,75.1,64,77.3,65.9z"/>
	<path class="st1" d="M52.2,95.2l0,1.2l4.6-4.1c0-1.5,0-3.2,0-4.9c0-5.4,0-11.5-0.1-16.6c0.3-3.5-0.9-6.4-2.2-9.3
		c-0.7-1.6-1.4-3.3-1.8-5l0,0l0,0c0.2-0.8,0.5-1.6,1.3-1.9c0.6-1.4,1.6-3.3,3.5-4.6v-0.2c-0.8-0.3-1.6-0.5-2.4-0.5
		c-2.2,0-4.4,1.1-5.8,3.1c-1.3,1.8-1.8,4.4-1.1,6.6c0.4,1,0.8,1.9,1.3,2.9c1,2.2,2,4.4,2.5,6.8c0.2,4.6,0.2,9.7,0.2,14.6
		C52.1,87.3,52.1,91.3,52.2,95.2z"/>
	<path class="st1" d="M60.7,60.6c-0.4-1-0.9-2-1.3-3l-0.2-1.2c0.1-0.7,0.4-1.5,1.3-1.9c0.5-1.6,1.8-3.3,3.5-4.6v-0.1
		c-1.7-0.7-4.1-0.6-5.8,0.4c-2.7,1.6-4.2,4.5-3.8,7.5c0.5,1.6,1.2,3.1,1.8,4.6c0.9,2,1.9,4.1,2.2,6.5c0.2,4.3,0.2,8.8,0.2,13.1
		c0,3.4,0,6.8,0.1,10.2c1.4,1.3,2.9,2.7,4.4,4l0.1,0.2l-0.1-26.3C63.4,66.5,62,63.5,60.7,60.6z"/>
	<path class="st1" d="M44.5,50c-2.1-0.9-4.8-0.4-6.6,1c-2.1,1.8-3.2,4.1-3,6.7c0.4,1.8,1.2,3.5,2,5.2c0.9,2,1.9,4,2.1,6.3l0.3,35
		c0.3,0.2,0.5,0.5,0.8,0.7c0.5,0.5,1,0.9,1.6,1.2l2.2-2c0.1-11.5,0-22.8-0.2-36.9c-0.4-1.9-1.2-3.5-2-5.3l-0.1-0.2
		c-0.2-0.6-0.5-1.1-0.8-1.7c-0.7-1.4-1.4-2.8-0.7-4.4l0,0c0.7-0.6,1.1-1.3,1.5-2.1c0.4-0.8,0.8-1.6,1.5-2.1c0.2-0.2,0.4-0.3,0.6-0.5
		C44,50.5,44.3,50.2,44.5,50z"/>
	<path class="st1" d="M51,50.1V50c-0.7-0.4-1.5-0.4-2.5-0.5c-0.3,0-0.6,0-0.9,0c-2.3,0.4-4.5,2-5.6,4.2c-1.6,3.5-0.2,6.4,1.4,9.4
		c1,2,2,4.1,2.1,6.4c0,3.3,0,6.6,0.1,9.7c0,7.8,0.1,15.2,0.3,22.9c1-0.8,2.1-1.8,3-2.7c0.5-0.5,1-1,1.5-1.4l-0.2-27.9
		c0.2-3.4-1.1-6.3-2.4-9.1c-0.5-1.1-1-2.3-1.5-3.4l0,0l-0.1-1.1c0-0.8,0.7-1.5,1.3-1.8C48,53,49.1,51.5,51,50.1z"/>
	<path class="st1" d="M97.5,90.5c0,2.5,0,4.9,0.1,7.2c0.2,0.2,0.5,0.4,0.7,0.6c1.3,1.2,2.6,2.4,4,3.5c0,0,0-0.1,0.1-0.1l-0.3-33
		l-0.3-2.6c0-0.1,0-0.1-0.1-0.2c0-0.2-0.1-0.3-0.2-0.4l-0.9,0.8c-1,0.6-2.4,0.7-3.5,0.3l0.4,2.1C97.4,75.8,97.5,83.2,97.5,90.5z"/>
	<path class="st1" d="M108.4,66.3l-0.3-0.8c-0.2,0.1-0.4,0.3-0.6,0.4c-0.1,0.1-0.3,0.2-0.4,0.3c-0.9,0.7-2,0.5-3,0.4
		c-0.2,0-0.3,0-0.5-0.1l0.4,1.5c0,3.6,0.1,7.1,0.1,10.6c0,8.1,0.1,16.5,0.3,24.8c1.7,1.4,2.1,1.9,2.3,2l2.2-2l0.1-0.4L108.6,70
		L108.4,66.3z"/>
	<path class="st1" d="M89.3,80.1c0-4.7,0-9.5-0.5-14l-0.2-0.5c-0.3,0.1-0.5,0.3-0.7,0.5c-0.4,0.3-0.7,0.6-1.2,0.7
		c-0.6,0.2-1.3,0.2-1.9,0.1c-0.3,0-0.5-0.1-0.7-0.1l0.4,1.5c0,6.1,0.1,12,0.2,18.2c0.1,3.1,0.1,6.3,0.2,9.5c1.5-1.1,3-2.5,4.6-4.1
		l-0.1-7.3C89.3,83.1,89.3,81.6,89.3,80.1z"/>
	<path class="st1" d="M95.8,79.6c0-4.5,0.1-9.2-0.4-13.3l0-0.1c-0.1-0.3-0.1-0.6-0.4-0.7c-0.4,0.4-1.8,1.7-4.4,1.1l0.4,1.7
		c0,2.4,0,4.7,0.1,7c0,5.7,0.1,11.1,0.3,16.6c0.4,0.4,0.8,0.7,1.2,1.1c1.1,1,2.2,2,3.3,2.8c0.1-1.7,0.1-3.5,0.1-5.3
		c0-0.9,0-1.7,0-2.5C95.7,85.5,95.8,82.6,95.8,79.6z"/>
	<path class="st1" d="M82.2,65.6c-0.3,0.1-0.5,0.3-0.7,0.4c-0.1,0.1-0.3,0.2-0.4,0.3c-1.1,0.7-2.3,0.5-3.4,0.3
		c0,0.2,0.1,0.4,0.1,0.7c0.1,0.5,0.2,1,0.2,1.6l0.3,32.9c1.6-1.2,3-2.6,4.4-3.9l0,0V70l-0.3-3.5L82.2,65.6z"/>
</g>
<g>
	<path class="st1" d="M57.8,120c-0.1,0-0.1-0.1-0.2-0.2s-0.1-0.1-0.1-0.2c0-0.1,0-0.2,0-0.2c0.5-0.3,1-0.6,1.5-1
		c0.5-0.3,0.9-0.6,1.3-0.8c0.3-0.2,0.5-0.3,0.5-0.3h0c0.1,0,0.1,0.1,0.2,0.3c-0.1,0.3-0.1,0.7-0.1,1.4v5.8c0,0.4,0,0.7,0.1,1
		c0,0.1,0.1,0.1,0.4,0.2c0.2,0.1,0.4,0.1,0.5,0.1c0,0,0,0.1,0,0.3c0,0.1,0,0.2,0,0.2c-0.1,0-0.4,0-0.9-0.1s-0.8-0.1-1-0.1
		c-0.2,0-0.6,0-1,0.1c-0.5,0-0.8,0.1-0.9,0.1c0,0-0.1-0.1-0.1-0.3s0-0.2,0.1-0.2c0.1,0,0.3,0,0.5-0.1c0.2-0.1,0.4-0.2,0.4-0.2
		c0.1-0.2,0.1-0.5,0.1-0.8v-4.8c0-0.5-0.1-0.7-0.3-0.7C58.6,119.5,58.3,119.7,57.8,120z"/>
	<path class="st1" d="M68.6,117.5c0.8,0,1.5,0.3,2.1,0.8c0.6,0.6,0.9,1.3,0.9,2.2c0,0.8-0.2,1.5-0.5,2.2c-0.3,0.7-0.7,1.3-1.3,1.8
		c-0.5,0.5-1.1,1-1.7,1.4c-0.6,0.4-1.2,0.7-1.9,1c-0.2,0-0.3-0.2-0.3-0.5c0.8-0.3,1.5-0.8,2.1-1.4c0.6-0.6,1-1.3,1.2-2
		c0-0.1,0-0.2,0-0.3c-0.3,0.1-0.6,0.2-0.8,0.2c-0.8,0-1.4-0.3-2-0.8c-0.5-0.5-0.8-1.1-0.8-1.8c0-0.7,0.3-1.4,0.8-1.9
		C67.2,117.8,67.9,117.5,68.6,117.5z M69.7,120.3c0-1.4-0.4-2.1-1.1-2.1c-0.3,0-0.6,0.1-0.7,0.4c-0.1,0.3-0.2,0.8-0.2,1.4
		c0,0.7,0.1,1.1,0.3,1.5c0.2,0.3,0.5,0.5,1,0.5c0.4,0,0.6-0.1,0.6-0.4C69.7,121.5,69.7,121,69.7,120.3z"/>
	<path class="st1" d="M78.6,117.5c0.7,0,1.3,0.2,1.8,0.7c0.5,0.4,0.7,1.1,0.7,1.8c0,0.3,0,0.6-0.1,0.9c-0.1,0.3-0.2,0.6-0.4,0.9
		c-0.2,0.3-0.4,0.6-0.5,0.8c-0.1,0.2-0.4,0.5-0.8,0.9c-0.4,0.4-0.6,0.6-0.8,0.8c-0.1,0.1-0.4,0.4-0.9,0.9c0,0,0,0,0,0.1
		c0,0,0,0.1,0.1,0.1H80c0.2,0,0.4,0,0.5-0.1s0.3-0.2,0.3-0.3c0.1-0.2,0.1-0.3,0.2-0.4c0-0.1,0.1-0.3,0.1-0.4c0-0.1,0.1-0.1,0.2-0.1
		c0.1,0,0.3,0,0.3,0.1c-0.2,0.8-0.4,1.7-0.6,2.6c0,0.1-0.1,0.2-0.2,0.2h-5.3c-0.1-0.1-0.2-0.3-0.2-0.5c0.9-1,1.7-2.1,2.4-3.2
		c0.7-1.1,1.1-2.1,1.1-2.8c0-0.4-0.1-0.8-0.3-1.1c-0.2-0.3-0.5-0.5-0.9-0.5c-0.2,0-0.5,0.1-0.7,0.2c-0.2,0.1-0.4,0.2-0.5,0.3
		c-0.1,0.1-0.2,0.2-0.3,0.4l-0.1,0.2c-0.1,0-0.2,0-0.3-0.1c-0.1-0.1-0.2-0.2-0.2-0.3c0.1-0.2,0.2-0.3,0.3-0.5
		c0.1-0.2,0.3-0.4,0.5-0.6c0.2-0.2,0.5-0.4,0.8-0.5C77.8,117.6,78.2,117.5,78.6,117.5z"/>
	<path class="st1" d="M87.4,119c-0.1,0-0.2,0-0.2,0c-0.1,0-0.1,0.1-0.2,0.1c-0.1,0-0.1,0.1-0.2,0.1c-0.1,0.1-0.1,0.1-0.1,0.2
		c0,0-0.1,0.1-0.1,0.2c0,0.1-0.1,0.2-0.1,0.2c0,0,0,0.1-0.1,0.2c0,0.1-0.1,0.2-0.1,0.2c0,0-0.1,0.1-0.3,0.1c-0.2,0-0.3,0-0.4-0.1
		c0.2-0.9,0.4-1.7,0.6-2.6c0-0.1,0.1-0.2,0.3-0.2h4.3c0.1,0,0.3,0,0.6,0l0.4,0c0.1,0,0.1,0,0.1,0.1c0,0.2-0.1,0.5-0.4,1l-3.9,8.3
		c0,0-0.1,0-0.1,0c-0.1,0-0.3,0-0.4-0.1c-0.1-0.1-0.2-0.2-0.2-0.3l3.7-7.4H87.4z"/>
</g>
<path class="st2" d="M128.5,27.2l0,19.4c0,17.1,0,34.3,0,51.4c0,18.6-8.2,32.1-25.2,41c-7.2,3.8-14.5,7.8-21.5,11.7
	c-2,1.1-4,2.2-6,3.3l-0.2,0.1c-0.2,0.1-0.5,0.3-0.7,0.4c-0.3-0.2-0.5-0.3-0.7-0.4l-0.2-0.1c-2-1.1-4-2.2-6-3.3
	c-7-3.9-14.3-7.8-21.5-11.6c-17-9-25.2-22.4-25.2-41c0-17.1,0-34.3,0-51.4l0-19.4H128.5 M131.2,24.5H18.3c0,24.5,0,49,0,73.5
	c0,19.2,8.5,33.9,26.7,43.4c9.2,4.9,18.4,9.9,27.5,14.9c0.8,0.4,1.3,0.7,2.2,1.5c0.9-0.8,1.4-1.1,2.2-1.5c9.2-5,18.3-10.1,27.5-14.9
	c18.1-9.6,26.7-24.2,26.7-43.4C131.2,73.5,131.2,49,131.2,24.5L131.2,24.5z"/>
</svg>
